<svg xmlns="http://www.w3.org/2000/svg" xmlns:xlink="http://www.w3.org/1999/xlink" width="500" zoomAndPan="magnify" viewBox="0 0 375 374.999991" height="500" preserveAspectRatio="xMidYMid meet" version="1.0"><defs><clipPath id="ded30f4a88"><path d="M 114 177 L 311 177 L 311 350.25 L 114 350.25 Z M 114 177 " clip-rule="nonzero"/></clipPath><clipPath id="c780450990"><path d="M 161 259 L 227 259 L 227 350.25 L 161 350.25 Z M 161 259 " clip-rule="nonzero"/></clipPath><clipPath id="b0ed0d55d8"><path d="M 191.269531 126.054688 L 194.269531 126.054688 L 194.269531 129.054688 L 191.269531 129.054688 Z M 191.269531 126.054688 " clip-rule="nonzero"/></clipPath></defs><path fill="#4e4eba" d="M 172.09375 207.582031 C 171.449219 205.09375 170.703125 202.667969 169.875 200.242188 C 168.484375 196.15625 166.847656 192.152344 165.085938 188.191406 L 165.085938 188.171875 C 165.066406 188.152344 165.066406 188.152344 165.066406 188.109375 C 165.066406 188.109375 165.066406 188.109375 165.046875 188.089844 C 164.921875 187.777344 164.777344 187.445312 164.609375 187.136719 C 164.027344 185.871094 163.429688 184.625 162.847656 183.359375 C 162.082031 181.765625 161.25 180.1875 160.359375 178.695312 L 160.359375 178.671875 C 160.234375 178.488281 160.113281 178.300781 159.988281 178.113281 C 158.949219 176.414062 157.769531 174.835938 156.402344 173.449219 C 154.804688 171.808594 152.960938 170.398438 150.722656 169.363281 C 150.660156 169.339844 150.617188 169.300781 150.554688 169.300781 C 150.367188 169.21875 150.183594 169.195312 149.996094 169.195312 C 149.167969 168.761719 148.316406 168.386719 147.46875 168.054688 C 145.871094 167.476562 144.191406 167.101562 142.535156 166.875 C 141.519531 166.75 140.523438 166.6875 139.507812 166.6875 C 138.035156 166.6875 136.5625 166.8125 135.132812 167.039062 C 134.242188 167.164062 133.351562 167.328125 132.4375 167.578125 C 127.648438 168.699219 123.046875 170.855469 118.984375 173.488281 C 113.492188 177.035156 108.621094 181.492188 103.625 185.703125 C 102.984375 186.242188 102.339844 186.78125 101.675781 187.28125 C 100.785156 188.007812 99.914062 188.667969 99.023438 189.332031 C 94.464844 192.691406 89.695312 195.660156 84.761719 198.601562 C 80.347656 201.257812 75.929688 203.953125 71.992188 207.335938 C 66.625 212 64.300781 218.679688 59.222656 223.34375 C 49.9375 231.867188 42.929688 242.070312 41.519531 255.074219 C 40.214844 266.832031 46.332031 277.429688 57.253906 282.054688 C 71.226562 287.984375 79.246094 287.324219 92.699219 284.292969 C 98.277344 283.03125 106.898438 277.265625 112.1875 278.199219 C 114.074219 278.550781 116 278.882812 117.949219 279.152344 C 120.105469 279.441406 122.238281 279.585938 124.355469 279.503906 C 124.625 279.503906 124.851562 279.484375 125.121094 279.484375 C 129.847656 279.296875 134.449219 278.21875 138.90625 276.457031 C 150.761719 271.664062 159.964844 262.082031 166.433594 251.257812 C 174.601562 237.613281 176.011719 222.867188 172.09375 207.582031 Z M 172.09375 207.582031 " fill-opacity="1" fill-rule="nonzero"/><path fill="#1d1d7a" d="M 117.265625 234.316406 C 110.15625 223.386719 107.046875 212.125 103.273438 199.847656 C 102.152344 196.21875 100.703125 192.691406 99.042969 189.269531 C 99.933594 188.605469 100.804688 187.945312 101.699219 187.21875 C 102.921875 189.601562 104.019531 192.027344 104.972656 194.558594 C 107.542969 201.320312 108.496094 208.558594 111.109375 215.257812 C 113.535156 221.394531 117.96875 226.933594 119.109375 233.527344 C 119.316406 234.625 117.929688 235.289062 117.265625 234.316406 Z M 117.265625 234.316406 " fill-opacity="1" fill-rule="nonzero"/><path fill="#1d1d7a" d="M 107.769531 246.238281 C 107.730469 245.121094 105.761719 244.765625 105.492188 245.96875 C 103.105469 256.402344 98.960938 267.371094 87.644531 272.703125 C 78.066406 277.203125 64.449219 275.769531 57.875 267.664062 C 50.433594 258.496094 53.335938 244.042969 60.382812 235.394531 C 68.695312 225.191406 83.0625 222.308594 96.101562 226.308594 C 97.15625 226.640625 97.757812 225.230469 96.847656 224.753906 C 68.21875 209.179688 37.5 246.300781 54.082031 268.949219 C 60.863281 278.21875 75.414062 280.769531 86.542969 276.871094 C 99.996094 272.183594 108.332031 258.746094 107.769531 246.238281 Z M 107.769531 246.238281 " fill-opacity="1" fill-rule="nonzero"/><path fill="#1d1d7a" d="M 124 276.683594 C 123.941406 276.25 123.898438 275.832031 123.878906 275.378906 C 123.316406 268.886719 123.523438 262.582031 121.078125 256.421875 C 120.1875 254.183594 119.128906 252.003906 118.050781 249.910156 C 117.242188 248.355469 116.457031 246.820312 115.648438 245.265625 C 114.28125 242.570312 112.972656 239.8125 112 236.886719 C 109.699219 230.023438 108.453125 222.679688 108.207031 215.359375 L 108.207031 215.339844 C 108.144531 214.074219 108.125 212.828125 108.144531 211.566406 C 108.144531 210.714844 107.109375 210.714844 106.839844 211.359375 C 106.777344 211.417969 106.753906 211.480469 106.753906 211.566406 C 105.71875 219.652344 106.382812 226.871094 108.207031 233.839844 C 107.003906 237.613281 106.464844 241.429688 106.464844 245.265625 C 106.464844 247.917969 106.714844 250.554688 107.191406 253.167969 C 107.460938 254.722656 107.8125 256.234375 108.226562 257.769531 L 108.226562 257.789062 C 108.808594 260.03125 109.59375 262.25 110.464844 264.449219 C 112.433594 269.300781 113.160156 272.910156 112.226562 278.175781 C 114.113281 278.53125 116.042969 278.859375 117.992188 279.132812 C 120.144531 279.421875 122.28125 279.566406 124.394531 279.484375 C 124.25 278.53125 124.125 277.617188 124 276.683594 Z M 124 276.683594 " fill-opacity="1" fill-rule="nonzero"/><g clip-path="url(#ded30f4a88)"><path fill="#4e4eba" d="M 309.378906 350.078125 C 309.378906 350.140625 309.378906 350.179688 309.359375 350.203125 L 137.351562 350.203125 C 137.082031 339.292969 138.429688 326.644531 135.796875 317.351562 C 130.863281 307.148438 133.867188 296.136719 128.4375 286.183594 C 127.359375 284.234375 126.28125 281.929688 125.183594 279.421875 C 124.789062 278.53125 124.417969 277.597656 124 276.664062 C 120.230469 267.578125 116.746094 256.941406 115.253906 252.234375 C 114.757812 250.675781 114.488281 249.765625 114.488281 249.765625 C 114.488281 249.765625 114.964844 247.609375 115.667969 245.222656 C 116.167969 243.460938 116.789062 241.59375 117.429688 240.328125 C 120.023438 235.25 121.679688 232.386719 119.753906 226.433594 C 117.90625 220.753906 117.183594 216.023438 120.582031 210.652344 C 123.753906 205.613281 128.996094 202.667969 134.367188 200.429688 C 137.332031 199.226562 140.378906 198.023438 143.464844 196.921875 C 147.382812 195.511719 151.40625 194.226562 155.40625 193.191406 C 156.691406 192.839844 157.976562 192.527344 159.242188 192.238281 C 158.929688 191.988281 158.785156 191.574219 159.15625 191.28125 C 160.652344 190.078125 162.203125 188.898438 163.757812 187.757812 C 164.007812 187.570312 164.238281 187.40625 164.484375 187.21875 C 164.546875 187.195312 164.589844 187.136719 164.652344 187.113281 C 165.128906 186.742188 165.644531 186.386719 166.121094 186.078125 C 167.304688 185.226562 168.507812 184.398438 169.707031 183.589844 C 170.746094 182.925781 171.78125 182.21875 172.859375 181.578125 C 173.503906 181.140625 174.164062 180.746094 174.828125 180.351562 C 175.121094 180.167969 175.410156 180 175.71875 179.855469 C 175.988281 179.667969 176.257812 179.503906 176.527344 179.378906 C 177.480469 178.796875 178.476562 178.238281 179.472656 177.699219 C 179.722656 177.574219 179.949219 177.429688 180.199219 177.304688 C 180.652344 177.367188 181.089844 177.410156 181.503906 177.472656 C 186.914062 178.09375 192.160156 178.882812 196.90625 179.542969 C 197.839844 179.667969 198.792969 179.8125 199.746094 179.980469 C 202.335938 180.351562 204.925781 180.746094 207.519531 181.203125 C 207.644531 181.203125 207.765625 181.222656 207.890625 181.285156 C 208.347656 181.347656 208.804688 181.410156 209.257812 181.492188 C 209.613281 181.554688 209.945312 181.597656 210.296875 181.679688 C 210.378906 181.679688 210.460938 181.679688 210.542969 181.703125 C 215.394531 182.550781 220.265625 183.484375 225.097656 184.460938 L 225.117188 184.460938 C 227.316406 184.914062 229.46875 185.371094 231.625 185.828125 C 232.664062 186.035156 233.699219 186.265625 234.714844 186.472656 C 241.390625 187.882812 248.042969 189.332031 254.65625 190.742188 C 260.5 192.007812 266.242188 193.273438 271.839844 194.746094 C 273.125 195.058594 274.410156 195.410156 275.675781 195.78125 C 284.753906 198.292969 293.5625 201.421875 302.1875 205.820312 C 303.515625 208.765625 304.632812 211.855469 305.441406 215.109375 C 307.039062 221.5 307.515625 227.988281 307.554688 234.523438 C 307.554688 236.179688 307.535156 237.800781 307.492188 239.457031 C 307.371094 246.261719 306.933594 253.082031 307.039062 259.84375 C 307.058594 262.082031 307.140625 264.363281 307.246094 266.644531 C 307.617188 274.257812 308.324219 281.972656 308.902344 289.5625 C 308.902344 289.832031 308.925781 290.121094 308.964844 290.390625 C 309.152344 292.464844 309.277344 294.558594 309.421875 296.632812 C 309.546875 298.5 309.671875 300.367188 309.734375 302.210938 C 309.917969 306.089844 310.1875 309.824219 310.210938 313.535156 C 310.273438 317.351562 310.085938 321.210938 309.359375 325.148438 C 308.28125 330.769531 310.1875 344.269531 309.378906 350.078125 Z M 309.378906 350.078125 " fill-opacity="1" fill-rule="nonzero"/></g><path fill="#1d1d7a" d="M 309.691406 302.253906 C 309.609375 300.410156 309.503906 298.542969 309.378906 296.675781 C 309.257812 294.601562 309.109375 292.507812 308.925781 290.433594 C 306.167969 290.867188 303.742188 290.910156 301.335938 290.453125 C 301.316406 290.453125 301.273438 290.453125 301.234375 290.433594 C 299.390625 290.082031 297.542969 289.417969 295.554688 288.359375 C 293.171875 287.09375 291.097656 285.414062 288.671875 284.210938 C 279.054688 279.402344 268.773438 277.410156 260.648438 269.859375 C 260.292969 269.550781 259.921875 269.175781 259.570312 268.867188 C 259.507812 268.804688 259.445312 268.742188 259.382812 268.65625 C 258.449219 267.746094 257.597656 266.792969 256.769531 265.796875 C 254.988281 263.679688 253.414062 261.421875 251.980469 259.035156 C 251.960938 258.972656 251.917969 258.910156 251.898438 258.847656 C 251.878906 258.785156 251.835938 258.785156 251.816406 258.765625 C 250.179688 255.902344 248.832031 252.917969 247.792969 249.785156 C 247.792969 249.785156 247.792969 249.785156 247.792969 249.765625 C 246.839844 246.882812 246.136719 243.894531 245.742188 240.847656 C 245.617188 239.832031 244.042969 239.769531 244.105469 240.847656 C 244.125 241.386719 244.1875 241.925781 244.230469 242.445312 C 244.230469 242.464844 244.230469 242.464844 244.230469 242.507812 C 244.851562 249.390625 246.902344 255.925781 250.324219 261.730469 C 251.320312 263.410156 252.375 265.007812 253.578125 266.5625 C 256.792969 273.550781 261.371094 279.648438 267.589844 284.625 C 271.820312 287.964844 276.566406 290.265625 281.230469 292.941406 C 287.824219 296.675781 292.464844 302.234375 298.1875 307.105469 C 301.523438 309.949219 305.730469 312.5625 310.167969 313.597656 C 310.148438 309.867188 309.878906 306.113281 309.691406 302.253906 Z M 309.691406 302.253906 " fill-opacity="1" fill-rule="nonzero"/><path fill="#4e4eba" d="M 330.523438 271.707031 C 326.792969 279.835938 319.558594 286.328125 310.996094 288.980469 C 306.375 290.453125 301.421875 290.765625 296.632812 290.058594 C 295.511719 289.875 294.414062 289.667969 293.316406 289.375 C 287.96875 288.007812 284.070312 284.542969 279.117188 282.574219 C 273.207031 280.25 267.882812 277.285156 263.277344 272.867188 C 252.625 262.664062 247.546875 248.542969 240.851562 235.765625 C 236.703125 227.90625 231.832031 220.523438 226.113281 213.699219 C 223.8125 210.984375 221.21875 208.496094 218.671875 206.027344 C 217.71875 205.09375 216.742188 204.160156 215.789062 203.226562 C 214.277344 201.714844 212.761719 200.136719 211.414062 198.4375 C 205.570312 191.304688 206.792969 179.875 209.570312 170.273438 C 209.136719 170.296875 208.722656 170.335938 208.304688 170.359375 C 207.105469 170.460938 206.855469 168.53125 208.015625 168.304688 C 208.78125 168.136719 209.527344 168.054688 210.277344 167.929688 C 211.042969 165.484375 211.933594 163.203125 212.761719 161.191406 C 213.40625 159.71875 215.746094 160.796875 215.292969 162.269531 C 214.792969 163.929688 214.296875 165.609375 213.820312 167.308594 C 218.171875 166.667969 222.527344 166.273438 226.898438 166.125 C 228.207031 166.066406 229.511719 166.023438 230.816406 166.042969 C 240.269531 165.941406 249.742188 166.914062 259.070312 168.71875 C 268.421875 170.503906 276.191406 173.09375 283.261719 177.65625 C 284.195312 178.28125 285.128906 178.921875 286.039062 179.628906 C 289.273438 182.011719 292.363281 184.894531 295.410156 188.359375 C 298.851562 192.277344 302.644531 195.699219 304.570312 200.675781 C 306.25 205.054688 306.148438 209.925781 307.847656 214.300781 C 310.148438 220.210938 315.371094 222.765625 319.992188 226.578125 C 326.003906 231.496094 325.21875 237.800781 327.789062 244.394531 C 331.621094 254.203125 335.25 261.484375 330.523438 271.707031 Z M 330.523438 271.707031 " fill-opacity="1" fill-rule="nonzero"/><path fill="#1d1d7a" d="M 218.691406 206.027344 C 218.132812 206.234375 217.550781 206.402344 216.929688 206.566406 C 204.242188 209.78125 193.296875 202.9375 181.441406 199.828125 C 170.207031 196.882812 165.023438 189.1875 159.902344 179.335938 C 159.632812 178.796875 160.382812 178.34375 160.734375 178.859375 C 166.371094 187.113281 172.21875 194.371094 182.25 196.859375 C 191.246094 199.082031 199.601562 203.996094 209.050781 204.035156 C 211.375 204.035156 213.675781 203.765625 215.808594 203.207031 C 223.6875 201.175781 229.96875 195.429688 231.460938 186.71875 C 232.785156 178.964844 230.175781 172.535156 226.941406 166.125 C 228.246094 166.066406 229.554688 166.023438 230.859375 166.042969 C 238.40625 180.644531 236.019531 200.40625 218.691406 206.027344 Z M 218.691406 206.027344 " fill-opacity="1" fill-rule="nonzero"/><path fill="#1d1d7a" d="M 286.082031 179.667969 C 284.027344 181.804688 282.082031 184.023438 280.296875 186.429688 C 273.539062 195.492188 274.429688 205.738281 270.347656 215.753906 C 265.890625 226.703125 258.863281 234.605469 261.453125 247.277344 C 261.703125 248.5 260.085938 249.246094 259.402344 248.125 C 254.199219 239.769531 259.132812 229.878906 263.238281 222.101562 C 266.410156 216.066406 268.585938 210.488281 269.726562 203.746094 C 270.554688 198.914062 271.488281 194.394531 273.789062 190.078125 C 276.277344 185.351562 279.613281 181.371094 283.324219 177.679688 C 284.234375 178.300781 285.167969 178.941406 286.082031 179.667969 Z M 286.082031 179.667969 " fill-opacity="1" fill-rule="nonzero"/><path fill="#1d1d7a" d="M 299.636719 228.859375 C 293.75 225.5625 286.640625 223.40625 279.261719 222.433594 C 285.542969 220.128906 291.96875 218.636719 298.332031 219.113281 C 300.03125 219.238281 300.15625 216.8125 298.703125 216.3125 C 291.925781 213.949219 283.78125 217.703125 277.394531 220.066406 C 275.863281 220.648438 274.328125 221.25 272.816406 221.894531 C 264.792969 221.582031 256.769531 222.660156 249.972656 225.210938 C 249.183594 225.5 249.265625 226.703125 250.179688 226.726562 C 254.71875 226.828125 259.195312 226.601562 263.609375 226.394531 C 260.9375 227.886719 258.324219 229.503906 255.859375 231.390625 C 255.113281 231.972656 255.734375 233.027344 256.605469 232.65625 C 261.019531 230.707031 265.703125 228.34375 270.492188 226.125 C 278.847656 225.9375 287.054688 226.539062 295.367188 230.476562 C 308.507812 236.722656 314.625 247.546875 316.945312 261.359375 C 317.132812 262.5 319.019531 262.476562 319.226562 261.359375 C 321.632812 248.003906 310.542969 234.980469 299.636719 228.859375 Z M 299.636719 228.859375 " fill-opacity="1" fill-rule="nonzero"/><path fill="#ffad96" d="M 108.207031 257.792969 C 123.046875 247.152344 165.914062 206.195312 165.914062 206.195312 L 151.488281 188.398438 C 151.488281 188.398438 92.410156 215.941406 79.414062 224.050781 C 68.136719 231.078125 56.652344 246.863281 65.277344 259.800781 C 72.882812 271.167969 86.191406 273.574219 108.207031 257.792969 Z M 108.207031 257.792969 " fill-opacity="1" fill-rule="nonzero"/><path fill="#a64b37" d="M 250.34375 147.773438 C 251.421875 146.382812 252.417969 144.972656 253.351562 143.5 C 256.335938 138.753906 259.175781 133.796875 260.6875 128.339844 C 262.304688 122.453125 261.394531 117.683594 260.128906 111.894531 C 259.113281 107.167969 256.914062 102.9375 253.082031 99.847656 C 252.023438 98.996094 250.882812 98.25 249.578125 97.585938 C 249.617188 97.253906 249.660156 96.921875 249.660156 96.570312 C 250.78125 83.835938 244.933594 71.621094 236.351562 62.496094 C 218.503906 43.605469 185.359375 37.527344 161.667969 48.019531 C 153.167969 51.796875 143.796875 54.84375 134.261719 53.539062 C 132.894531 53.351562 132.5 55.132812 133.164062 56.003906 C 135.589844 59.117188 138.925781 62.183594 142.65625 63.867188 C 143.074219 64.074219 143.488281 64.257812 143.921875 64.40625 C 141.539062 66.042969 139.339844 67.867188 137.453125 69.691406 C 137.019531 70.085938 136.625 70.5 136.253906 70.917969 C 125.804688 81.886719 123.359375 100.800781 106.960938 105.527344 C 105.84375 105.839844 105.675781 107.230469 106.589844 107.894531 C 107.855469 108.828125 109.179688 109.699219 110.527344 110.464844 C 113.597656 112.269531 116.890625 113.617188 120.394531 113.992188 C 118.300781 115.484375 115.898438 116.582031 114.257812 118.71875 C 113.949219 119.09375 114.03125 119.714844 114.195312 120.128906 C 115.667969 123.136719 120.082031 125.25 123.046875 126.328125 C 125.617188 127.261719 128.4375 127.675781 131.214844 127.53125 C 131.234375 128.902344 131.382812 130.289062 131.816406 131.722656 C 132.085938 132.613281 132.851562 133.007812 133.246094 133.878906 C 135.734375 139.375 135.007812 140.390625 135.132812 145.574219 C 135.320312 153.144531 140.191406 157.1875 146.867188 159.925781 C 158.496094 164.695312 170.289062 169.09375 182.085938 173.449219 C 187.285156 175.375 192.488281 177.285156 197.714844 179.171875 C 200.347656 180.125 203.664062 182.035156 206.460938 182.324219 C 210.9375 182.78125 218.691406 170.957031 218.691406 170.957031 C 218.691406 170.957031 222.089844 170.441406 226.941406 167.515625 C 235.542969 162.394531 244.125 155.777344 250.34375 147.773438 Z M 250.34375 147.773438 " fill-opacity="1" fill-rule="nonzero"/><path fill="#752e1e" d="M 141.972656 101.566406 C 142.472656 100.945312 141.910156 100.15625 141.144531 100.449219 C 139.277344 101.195312 137.515625 102.085938 135.777344 102.957031 C 135.753906 102.976562 135.753906 102.976562 135.753906 102.976562 C 135.734375 103 135.671875 103.039062 135.628906 103.0625 C 130.90625 105.550781 126.46875 108.226562 120.789062 109.160156 C 117.390625 109.699219 113.988281 110.113281 110.570312 110.484375 C 113.636719 112.269531 116.933594 113.617188 120.457031 113.992188 C 118.382812 115.503906 115.9375 116.601562 114.320312 118.71875 C 114.03125 119.113281 114.074219 119.714844 114.257812 120.128906 C 115.730469 123.113281 120.167969 125.25 123.132812 126.328125 C 123.691406 126.535156 124.25 126.703125 124.832031 126.867188 C 125.929688 127.160156 127.050781 127.347656 128.1875 127.449219 C 128.355469 127.46875 128.480469 127.46875 128.644531 127.46875 C 129.183594 127.53125 129.722656 127.554688 130.242188 127.554688 L 130.675781 127.554688 C 130.882812 127.554688 131.070312 127.554688 131.296875 127.53125 C 131.296875 128.195312 131.359375 128.902344 131.421875 129.585938 C 131.503906 130.269531 131.671875 130.976562 131.859375 131.660156 C 135.089844 129.210938 137.578125 125.4375 138.925781 121.375 C 140.667969 116.273438 140.667969 110.628906 138.242188 106.421875 C 138.054688 106.128906 137.765625 105.945312 137.496094 105.859375 C 139.070312 104.617188 140.585938 103.226562 141.972656 101.566406 Z M 141.972656 101.566406 " fill-opacity="1" fill-rule="nonzero"/><path fill="#997e29" d="M 177.003906 183.027344 C 178.457031 185.1875 179.574219 187.632812 180.882812 189.789062 C 181.605469 190.992188 182.355469 192.152344 183.121094 193.335938 C 184.550781 195.511719 186.125 199.183594 188.65625 200.160156 C 190.625 200.925781 192.71875 201.402344 194.832031 201.507812 C 201.488281 201.816406 207.828125 199.289062 213.59375 196.175781 C 218.359375 193.605469 221.757812 190.164062 224.515625 185.457031 C 225.71875 183.402344 226.835938 179.542969 226.753906 177.097656 C 226.671875 174.609375 225.46875 173.261719 224.265625 171.3125 C 222.796875 168.90625 221.511719 166.394531 220.246094 163.867188 C 217.902344 159.199219 215.871094 154.242188 212.96875 149.886719 C 211 146.921875 208.367188 146.136719 203.890625 145.925781 C 199.246094 145.742188 193.421875 154.699219 190.976562 157.8125 C 189.464844 159.699219 188.136719 161.75 186.832031 163.90625 C 183.453125 169.546875 180.445312 175.707031 175.886719 180.042969 C 175.535156 179.8125 175.203125 179.605469 174.808594 179.421875 C 174.457031 179.234375 173.957031 179.691406 174.332031 180 C 174.640625 180.25 174.933594 180.539062 175.203125 180.832031 C 174.433594 181.949219 175.742188 183.464844 177.003906 183.027344 Z M 177.003906 183.027344 " fill-opacity="1" fill-rule="nonzero"/><path fill="#c4aa52" d="M 235.710938 121.433594 C 235.417969 114.820312 233.824219 108.328125 230.609375 102.316406 C 230.113281 101.320312 229.511719 100.34375 228.910156 99.371094 C 227.644531 97.398438 226.195312 95.472656 224.535156 93.625 C 217.324219 85.640625 209.902344 81.949219 199.414062 79.6875 C 180.714844 75.6875 151.738281 78.839844 144.566406 86.949219 C 143.734375 87.878906 142.925781 88.835938 142.222656 89.828125 C 139.527344 93.355469 137.433594 97.253906 136.085938 101.484375 C 135.921875 101.984375 135.777344 102.5 135.652344 103 C 135.628906 103.019531 135.589844 103.019531 135.628906 103.0625 C 134.90625 105.632812 134.449219 108.226562 134.222656 110.859375 C 133.972656 113.429688 134.285156 116.042969 133.910156 118.550781 C 133.746094 119.445312 133.535156 120.292969 133.164062 121.144531 C 132.25 123.199219 131.421875 125.375 130.675781 127.554688 C 126.261719 140.824219 125.226562 156.296875 132.460938 167.535156 C 133.207031 168.65625 134.015625 169.734375 134.90625 170.773438 L 134.90625 170.792969 C 136.5 172.640625 138.492188 174.421875 140.6875 176.101562 L 140.710938 176.121094 C 141 176.371094 141.289062 176.601562 141.601562 176.808594 C 148.191406 181.703125 156.628906 185.746094 163.738281 187.738281 C 164.195312 187.859375 164.589844 187.984375 165.023438 188.046875 L 165.046875 188.046875 C 165.066406 188.066406 165.066406 188.066406 165.066406 188.066406 C 165.253906 188.128906 165.417969 188.152344 165.605469 188.191406 C 166.621094 188.441406 167.636719 188.648438 168.632812 188.835938 C 169.648438 189.023438 170.640625 189.1875 171.617188 189.3125 C 173.542969 189.625 175.429688 189.808594 177.296875 189.933594 C 178.582031 189.996094 179.824219 190.015625 181.070312 190.015625 C 188.40625 189.914062 195.183594 188.277344 201.734375 184.894531 L 201.753906 184.894531 C 201.878906 184.832031 202.003906 184.792969 202.128906 184.707031 C 203.519531 183.984375 204.90625 183.152344 206.296875 182.261719 C 206.667969 182.011719 207.042969 181.785156 207.414062 181.515625 C 207.476562 181.492188 207.496094 181.453125 207.539062 181.433594 C 207.621094 181.371094 207.726562 181.308594 207.808594 181.246094 C 208.203125 180.976562 208.617188 180.683594 209.011719 180.394531 C 209.488281 180.023438 209.964844 179.667969 210.421875 179.273438 C 210.421875 179.273438 210.421875 179.273438 210.421875 179.253906 C 213.363281 176.929688 216.101562 174.171875 218.609375 171.082031 C 218.628906 171.019531 218.671875 171 218.710938 170.957031 C 219.085938 170.480469 219.480469 170.003906 219.851562 169.488281 C 220.515625 168.636719 221.179688 167.746094 221.800781 166.875 C 221.800781 166.851562 221.820312 166.851562 221.820312 166.8125 C 221.90625 166.6875 222.007812 166.542969 222.089844 166.417969 C 222.835938 165.316406 223.582031 164.175781 224.246094 163.015625 C 226.921875 158.640625 229.179688 153.910156 230.984375 149.015625 C 230.984375 148.933594 230.984375 148.851562 231.003906 148.769531 C 231.730469 146.757812 232.394531 144.972656 232.972656 142.921875 C 233.140625 142.359375 233.285156 141.800781 233.429688 141.21875 C 233.554688 140.679688 233.699219 140.121094 233.824219 139.582031 C 234.488281 136.800781 235.003906 134.003906 235.296875 131.246094 C 235.667969 128.007812 235.835938 124.835938 235.6875 121.726562 C 235.75 121.664062 235.75 121.539062 235.710938 121.433594 Z M 235.710938 121.433594 " fill-opacity="1" fill-rule="nonzero"/><path fill="#997e29" d="M 157.042969 162.746094 C 159.78125 165.710938 163.035156 162.828125 166.332031 163.058594 C 170.144531 163.347656 172.714844 165.691406 176.570312 163.992188 C 176.902344 164.34375 177.523438 164.261719 177.628906 163.722656 C 177.667969 163.492188 177.710938 163.285156 177.75 163.058594 C 177.835938 162.601562 177.503906 162.1875 177.066406 162.105469 C 175.121094 161.773438 173.296875 162.042969 171.449219 161.292969 C 170.101562 160.734375 168.941406 159.65625 167.492188 159.324219 C 164.214844 158.558594 161.625 161.441406 158.308594 160.695312 C 157.25 160.445312 156.277344 161.917969 157.042969 162.746094 Z M 157.042969 162.746094 " fill-opacity="1" fill-rule="nonzero"/><path fill="#997e29" d="M 228.453125 102.769531 C 228.101562 101.734375 227.644531 100.738281 227.128906 99.785156 C 225.28125 96.320312 222.402344 93.292969 219.417969 90.804688 C 205.796875 79.398438 186.664062 77.53125 169.648438 79.667969 C 160.027344 80.871094 150.058594 84.125 142.222656 89.851562 C 139.527344 93.375 137.433594 97.273438 136.085938 101.503906 C 135.921875 102.003906 135.777344 102.523438 135.652344 103.019531 C 135.628906 103.039062 135.589844 103.039062 135.628906 103.082031 C 134.90625 105.652344 134.449219 108.246094 134.222656 110.878906 C 133.972656 113.449219 134.285156 116.0625 133.910156 118.574219 C 135.484375 119.671875 137.164062 120.605469 138.925781 121.414062 C 142.617188 123.09375 146.679688 124.171875 150.761719 124.753906 C 152.398438 125.003906 154.039062 125.125 155.675781 125.230469 L 155.695312 125.230469 C 159.40625 125.394531 163.011719 125.210938 166.390625 124.734375 C 172.714844 123.820312 178.621094 123.882812 184.714844 125.957031 C 186.085938 126.414062 187.578125 126.722656 189.089844 126.972656 C 190.875 127.242188 192.71875 127.347656 194.480469 127.429688 C 195.039062 127.449219 195.578125 127.449219 196.054688 127.367188 C 198.957031 127.179688 200.617188 125.976562 203.476562 124.691406 C 206.605469 123.28125 209.675781 123.21875 212.761719 123.113281 C 214.816406 123.054688 216.867188 123.011719 218.960938 122.554688 C 225.097656 121.269531 228.414062 115.378906 229.160156 109.449219 C 229.449219 107.105469 229.160156 104.84375 228.453125 102.769531 Z M 228.453125 102.769531 " fill-opacity="1" fill-rule="nonzero"/><path fill="#a64b37" d="M 239.359375 103.785156 C 238.984375 102.832031 238.613281 101.898438 238.175781 100.988281 C 237.699219 99.949219 237.179688 98.953125 236.664062 98.023438 C 230.714844 87.277344 220.992188 81.453125 208.679688 77.636719 C 193.359375 72.84375 178.707031 70.5 162.765625 73.363281 C 148.234375 76.019531 139.652344 85.433594 136.046875 99.617188 C 136.023438 99.804688 135.984375 99.972656 136.023438 100.117188 C 135.070312 100.882812 134.179688 101.773438 133.371094 102.792969 C 132.894531 103.371094 135.132812 103.082031 135.671875 103 C 135.753906 102.976562 135.777344 102.976562 135.777344 102.976562 C 135.777344 102.976562 135.777344 102.976562 135.796875 102.957031 C 136.375 102.523438 145.746094 95.617188 151.757812 92.648438 C 155.300781 90.886719 159.074219 89.683594 162.910156 88.957031 C 164.089844 88.75 165.292969 88.566406 166.496094 88.398438 C 164.296875 89.808594 162.246094 91.449219 160.382812 93.375 C 160.132812 93.625 159.925781 93.851562 159.65625 94.121094 C 158.972656 94.871094 159.386719 96.175781 160.484375 96.238281 C 170.953125 96.714844 181.277344 95.988281 191.722656 96.964844 C 199.621094 97.710938 205.074219 98.601562 215.625 102.148438 C 215.914062 102.417969 216.203125 102.644531 216.453125 102.894531 C 217.011719 103.457031 217.28125 103.890625 217.09375 104.179688 C 216.660156 104.804688 216.285156 105.445312 215.914062 106.128906 C 213.777344 110.027344 212.886719 116.582031 212.761719 123.117188 C 212.492188 133.566406 214.070312 144.019531 215.25 143.894531 C 216.203125 143.769531 219.355469 137.28125 220.785156 134.273438 C 220.992188 133.773438 221.21875 133.277344 221.449219 132.800781 C 221.449219 132.800781 226.445312 143.273438 231.003906 144.476562 C 231.191406 144.539062 231.378906 144.558594 231.5625 144.578125 C 232.246094 144.640625 232.890625 143.6875 232.457031 143.105469 C 232.457031 143.046875 232.394531 143.023438 232.371094 143.003906 C 232.578125 143.066406 232.828125 143.023438 233.035156 142.941406 C 233.203125 142.878906 233.347656 142.773438 233.511719 142.589844 C 233.511719 142.566406 233.535156 142.527344 233.574219 142.503906 C 237.949219 136.679688 242.839844 130.890625 243.046875 123.300781 L 243.046875 123.054688 C 243.171875 116.625 241.597656 109.757812 239.359375 103.785156 Z M 239.359375 103.785156 " fill-opacity="1" fill-rule="nonzero"/><path fill="#997e29" d="M 164.445312 141.511719 C 165.957031 141.46875 166.890625 139.851562 167.84375 138.835938 C 169.441406 137.113281 171.324219 134.851562 171.222656 132.386719 C 171.179688 131.160156 169.957031 130.332031 168.859375 131.121094 C 167.054688 132.449219 165.851562 134.644531 164.339844 136.285156 C 163.097656 137.632812 159.988281 140.867188 164.027344 141.46875 C 164.175781 141.511719 164.320312 141.511719 164.445312 141.511719 Z M 164.445312 141.511719 " fill-opacity="1" fill-rule="nonzero"/><path fill="#752e1e" d="M 253.101562 99.847656 C 249.226562 99.867188 245.371094 100.117188 241.535156 100.53125 C 240.414062 100.632812 239.296875 100.78125 238.175781 100.988281 C 230.570312 102.042969 223.25 103.910156 215.914062 106.109375 C 216.285156 105.40625 216.679688 104.78125 217.117188 104.160156 C 217.300781 103.890625 217.03125 103.433594 216.472656 102.875 C 223.003906 100.550781 229.84375 98.996094 236.683594 98 C 238.257812 97.753906 239.835938 97.542969 241.410156 97.378906 C 244.023438 97.089844 246.820312 96.777344 249.703125 96.570312 C 249.722656 96.902344 249.660156 97.253906 249.617188 97.585938 C 250.882812 98.25 252.023438 99.015625 253.101562 99.847656 Z M 253.101562 99.847656 " fill-opacity="1" fill-rule="nonzero"/><path fill="#752e1e" d="M 198.378906 85.847656 C 188.882812 86.429688 179.96875 85.828125 170.726562 88.875 C 167.054688 90.078125 163.65625 91.59375 160.402344 93.398438 C 162.246094 91.46875 164.320312 89.851562 166.496094 88.441406 C 165.3125 88.585938 164.113281 88.773438 162.929688 89 C 174.289062 83.214844 187.660156 80.644531 198.625 84.4375 C 199.414062 84.667969 199.183594 85.808594 198.378906 85.847656 Z M 198.378906 85.847656 " fill-opacity="1" fill-rule="nonzero"/><path fill="#752e1e" d="M 186.023438 60.628906 C 174.082031 60.898438 163.117188 59.820312 151.445312 63.511719 C 146.492188 65.089844 141.871094 67.164062 137.476562 69.691406 C 139.363281 67.847656 141.558594 66.023438 143.941406 64.40625 C 143.507812 64.257812 143.09375 64.074219 142.679688 63.867188 C 144.710938 62.933594 146.761719 62.101562 148.875 61.355469 C 160.027344 57.394531 174.910156 54.761719 186.210938 59.511719 C 186.808594 59.757812 186.707031 60.652344 186.023438 60.628906 Z M 186.023438 60.628906 " fill-opacity="1" fill-rule="nonzero"/><path fill="#752e1e" d="M 215.394531 65.253906 C 207.433594 52.9375 188.675781 52.191406 175.699219 52.832031 C 174.890625 52.875 174.890625 53.953125 175.679688 54.054688 C 182.808594 55.03125 190.230469 55.527344 197.195312 57.394531 C 203.765625 59.136719 208.90625 62.476562 214.585938 66.023438 C 215.042969 66.3125 215.707031 65.753906 215.394531 65.253906 Z M 215.394531 65.253906 " fill-opacity="1" fill-rule="nonzero"/><path fill="#752e1e" d="M 250.136719 104.449219 C 249.410156 103.828125 248.375 104.742188 249.019531 105.488281 C 252.148438 109.035156 254.011719 113.617188 254.21875 118.367188 C 254.386719 122.472656 252.851562 126.101562 252.4375 130.082031 C 252.375 130.664062 253.246094 131.078125 253.640625 130.621094 C 259.941406 123.09375 257.039062 110.445312 250.136719 104.449219 Z M 250.136719 104.449219 " fill-opacity="1" fill-rule="nonzero"/><path fill="#ffad96" d="M 248.105469 260.15625 C 225.90625 243.773438 187.703125 202.75 187.703125 202.75 L 201.984375 184.644531 C 201.984375 184.644531 248.480469 212.644531 279.988281 225.914062 C 292.402344 231.140625 302.207031 249.910156 292.839844 262.394531 C 284.566406 273.367188 270.304688 276.539062 248.105469 260.15625 Z M 248.105469 260.15625 " fill-opacity="1" fill-rule="nonzero"/><path fill="#c4aa52" d="M 248.644531 145.410156 C 241.84375 162.457031 221.53125 163.347656 221.53125 163.347656 C 221.53125 163.347656 216.722656 146.175781 220.164062 135.871094 C 223.625 125.5625 232.785156 119.320312 240.664062 121.953125 C 248.519531 124.585938 252.6875 135.308594 248.644531 145.410156 Z M 248.644531 145.410156 " fill-opacity="1" fill-rule="nonzero"/><path fill="#997e29" d="M 233.742188 139.976562 C 234.03125 139.0625 234.507812 138.210938 235.003906 137.382812 C 235.9375 135.808594 236.871094 134.023438 236.394531 132.261719 C 236.25 131.761719 235.894531 131.222656 235.378906 131.265625 C 234.941406 131.308594 234.652344 131.742188 234.464844 132.15625 C 233.511719 134.023438 232.558594 135.910156 231.585938 137.777344 C 231.003906 138.898438 230.425781 140.078125 230.402344 141.363281 C 230.382812 142.734375 231.023438 144.019531 231.171875 145.367188 C 231.335938 146.777344 230.941406 148.207031 231.046875 149.617188 C 231.085938 150.179688 231.253906 150.820312 231.769531 151.027344 C 232.246094 151.238281 232.785156 150.988281 233.179688 150.65625 C 234.257812 149.742188 234.671875 148.25 234.589844 146.839844 C 234.507812 145.242188 233.636719 143.875 233.472656 142.339844 C 233.367188 141.511719 233.492188 140.722656 233.742188 139.976562 Z M 233.742188 139.976562 " fill-opacity="1" fill-rule="nonzero"/><path fill="#361c16" d="M 191.597656 132.15625 C 191.679688 132.179688 191.765625 132.199219 191.847656 132.21875 C 192.53125 132.363281 193.234375 132.261719 193.921875 132.15625 C 195.039062 131.992188 195.660156 130.953125 195.847656 129.875 C 196.136719 128.09375 196.199219 126.183594 195.328125 124.585938 C 193.628906 121.433594 189.648438 121.851562 189.152344 125.480469 C 188.902344 127.492188 189.257812 131.453125 191.597656 132.15625 Z M 191.597656 132.15625 " fill-opacity="1" fill-rule="nonzero"/><path fill="#361c16" d="M 152.339844 133.378906 C 152.421875 133.402344 152.503906 133.421875 152.585938 133.441406 C 153.269531 133.589844 153.976562 133.484375 154.660156 133.378906 C 155.777344 133.214844 156.402344 132.179688 156.585938 131.097656 C 156.878906 129.316406 156.941406 127.40625 156.070312 125.8125 C 154.371094 122.660156 150.390625 123.074219 149.890625 126.703125 C 149.621094 128.714844 149.996094 132.675781 152.339844 133.378906 Z M 152.339844 133.378906 " fill-opacity="1" fill-rule="nonzero"/><path fill="#752e1e" d="M 159.574219 112.164062 C 159.40625 111.460938 159.074219 110.839844 158.558594 110.382812 C 155.324219 107.625 151.777344 110.984375 149.414062 113.222656 C 147.734375 114.820312 141.558594 118.699219 145.375 120.980469 C 146.183594 121.457031 147.175781 121.394531 148.089844 121.269531 C 150.515625 120.917969 152.917969 120.191406 155.15625 119.03125 C 156.710938 118.242188 158.265625 117.164062 159.117188 115.523438 C 159.65625 114.507812 159.820312 113.242188 159.574219 112.164062 Z M 159.574219 112.164062 " fill-opacity="1" fill-rule="nonzero"/><path fill="#752e1e" d="M 187.410156 116.3125 C 188.675781 117.660156 190.457031 118.28125 192.160156 118.613281 C 194.625 119.113281 197.132812 119.175781 199.558594 118.863281 C 200.492188 118.738281 201.445312 118.53125 202.109375 117.847656 C 205.175781 114.613281 198.191406 112.558594 196.136719 111.480469 C 193.277344 109.96875 188.945312 107.6875 186.582031 111.210938 C 186.1875 111.792969 186.042969 112.476562 186.085938 113.203125 C 186.125 114.320312 186.644531 115.484375 187.410156 116.3125 Z M 187.410156 116.3125 " fill-opacity="1" fill-rule="nonzero"/><path fill="#ffad96" d="M 210.441406 183.402344 C 210.359375 186.679688 210.089844 189.808594 209.714844 192.195312 C 210.109375 193.210938 209.964844 196.800781 207.144531 198.871094 C 202.894531 202.046875 197.257812 205.550781 191.765625 203.976562 C 192.34375 205.074219 190.769531 205.925781 189.898438 205.238281 C 177.730469 195.617188 169.460938 175.066406 166.785156 166.8125 C 166.246094 165.132812 166.539062 163.679688 166.847656 161.917969 C 167.117188 160.445312 167.863281 159.34375 168.984375 159.074219 C 169.417969 158.992188 169.832031 158.992188 170.308594 159.160156 C 170.394531 159.179688 170.476562 159.242188 170.558594 159.261719 C 170.246094 157.8125 170.125 156.585938 170.207031 155.570312 C 170.476562 151.589844 173.234375 150.488281 174.664062 150.199219 C 175.203125 150.097656 175.554688 150.097656 175.554688 150.097656 C 175.554688 150.097656 175.636719 149.101562 176.03125 148.148438 C 176.300781 147.460938 176.757812 146.777344 177.421875 146.550781 C 178.644531 146.09375 181.214844 145.65625 182.871094 148.1875 C 182.890625 148.207031 182.890625 148.25 182.890625 148.25 C 182.996094 148.375 183.078125 148.519531 183.160156 148.6875 C 183.804688 148.148438 184.488281 147.648438 185.316406 147.421875 C 185.402344 147.398438 185.441406 147.398438 185.523438 147.359375 C 188.988281 146.632812 192.488281 150.820312 194.085938 153.226562 C 195.371094 155.15625 196.40625 157.25 197.363281 159.429688 C 202.378906 160.878906 207.4375 163.722656 209.074219 168.800781 C 210.253906 172.308594 210.585938 178.050781 210.441406 183.402344 Z M 210.441406 183.402344 " fill-opacity="1" fill-rule="nonzero"/><path fill="#e06c4e" d="M 210.460938 181.910156 C 210.523438 177.015625 210.152344 171.996094 209.09375 168.78125 C 207.4375 163.699219 202.398438 160.839844 197.382812 159.40625 C 197.382812 159.40625 199.414062 164.820312 201.859375 170.585938 C 202.128906 171.207031 202.417969 171.808594 202.773438 172.371094 C 204.925781 175.894531 207.539062 179.003906 210.460938 181.910156 Z M 210.460938 181.910156 " fill-opacity="1" fill-rule="nonzero"/><path fill="#e06c4e" d="M 193.339844 170.066406 C 191.328125 165.214844 189.277344 160.796875 186.75 156.214844 C 185.359375 153.703125 183.949219 151.007812 182.871094 148.230469 C 182.976562 148.355469 183.058594 148.5 183.140625 148.664062 C 183.785156 148.125 184.46875 147.628906 185.296875 147.398438 C 185.378906 147.378906 185.421875 147.378906 185.503906 147.335938 C 187.246094 150.613281 188.65625 154.121094 190.519531 157.292969 C 192.820312 161.191406 194.6875 164.984375 195.558594 169.445312 C 195.890625 170.957031 193.898438 171.4375 193.339844 170.066406 Z M 193.339844 170.066406 " fill-opacity="1" fill-rule="nonzero"/><path fill="#e06c4e" d="M 189.214844 173.21875 C 189.339844 174.171875 188.21875 174.671875 187.660156 173.882812 C 184.53125 169.527344 182.664062 164.21875 180.136719 159.511719 C 178.394531 156.339844 176.488281 153.289062 174.664062 150.179688 C 175.203125 150.074219 175.554688 150.074219 175.554688 150.074219 C 175.554688 150.074219 175.636719 149.078125 176.03125 148.125 C 182.023438 155.175781 187.824219 164.757812 189.214844 173.21875 Z M 189.214844 173.21875 " fill-opacity="1" fill-rule="nonzero"/><path fill="#e06c4e" d="M 181.441406 177.492188 C 181.441406 178.34375 180.21875 178.757812 179.699219 178.070312 C 176.796875 174.234375 174.996094 169.15625 172.464844 164.984375 C 171.261719 163.015625 170.039062 161.066406 168.960938 159.054688 C 169.398438 158.972656 169.8125 158.972656 170.289062 159.136719 C 170.371094 159.160156 170.457031 159.222656 170.539062 159.242188 C 170.226562 157.789062 170.101562 156.566406 170.1875 155.550781 C 172.050781 158.453125 173.792969 161.417969 175.574219 164.34375 C 178.019531 168.261719 181.359375 172.804688 181.441406 177.492188 Z M 181.441406 177.492188 " fill-opacity="1" fill-rule="nonzero"/><path fill="#ffad96" d="M 171.617188 189.375 C 171.261719 187.425781 170.539062 185.539062 169.667969 183.609375 C 169.417969 183.070312 169.171875 182.53125 168.902344 181.972656 C 167.054688 178.257812 165.375 174.734375 164.609375 170.648438 C 164.359375 169.363281 164.257812 168.054688 164.152344 166.726562 C 164.070312 165.609375 163.988281 164.46875 163.84375 163.328125 C 163.757812 162.496094 163.59375 161.667969 163.386719 160.878906 C 163.304688 160.570312 163.199219 160.238281 163.074219 159.945312 C 162.351562 158.101562 161.148438 157 159.757812 156.585938 C 159.097656 156.378906 158.390625 156.296875 157.707031 156.378906 C 157.726562 156.214844 157.726562 156.070312 157.726562 155.902344 C 157.789062 155.050781 157.664062 154.222656 157.273438 153.457031 C 156.421875 151.859375 155.074219 151.300781 153.664062 151.402344 C 153.085938 151.421875 152.441406 151.570312 151.820312 151.796875 C 151.714844 151.402344 151.550781 151.027344 151.28125 150.71875 C 150.84375 150.054688 150.140625 149.597656 149.042969 149.433594 C 147.632812 149.246094 146.886719 149.886719 146.097656 150.511719 C 145.601562 150.90625 145.082031 151.320312 144.398438 151.507812 C 144.046875 151.589844 143.734375 151.609375 143.402344 151.609375 C 142.179688 151.609375 141.0625 151.152344 139.695312 152.460938 C 139.195312 152.957031 138.738281 153.578125 138.324219 154.285156 C 136.5625 157.332031 135.898438 161.773438 135.445312 164.839844 C 135.339844 165.566406 135.238281 166.3125 135.152344 167.058594 C 135.03125 168.324219 134.945312 169.570312 134.90625 170.835938 L 134.90625 170.855469 C 134.738281 176.953125 135.941406 183.175781 139.921875 187.859375 C 140.957031 189.5 141.703125 191.136719 142.265625 192.777344 C 142.761719 194.226562 143.15625 195.636719 143.445312 197.007812 C 144.835938 203.375 144.917969 208.867188 151.199219 210.984375 C 155.757812 212.539062 160.007812 211.253906 163.46875 208.558594 C 163.675781 208.390625 163.863281 208.246094 164.050781 208.058594 C 164.609375 207.605469 165.148438 207.105469 165.644531 206.546875 C 165.730469 206.464844 165.8125 206.378906 165.894531 206.296875 C 165.894531 206.296875 165.914062 206.296875 165.914062 206.277344 C 167.511719 204.535156 168.859375 202.480469 169.875 200.324219 C 170.640625 198.726562 171.203125 197.046875 171.554688 195.410156 C 171.574219 195.328125 171.574219 195.285156 171.617188 195.203125 C 171.824219 194.019531 171.90625 192.898438 171.863281 191.84375 C 171.863281 190.949219 171.742188 190.140625 171.617188 189.375 Z M 171.617188 189.375 " fill-opacity="1" fill-rule="nonzero"/><path fill="#e06c4e" d="M 160.152344 177.71875 C 160.152344 178.21875 159.425781 178.613281 159.074219 178.175781 C 154.410156 172.597656 153.808594 162.394531 157.6875 155.882812 C 157.6875 156.046875 157.6875 156.191406 157.664062 156.359375 C 158.347656 156.277344 159.054688 156.359375 159.71875 156.566406 C 158.347656 159.46875 157.75 162.621094 157.933594 165.960938 C 158.164062 169.984375 160.195312 173.695312 160.152344 177.71875 Z M 160.152344 177.71875 " fill-opacity="1" fill-rule="nonzero"/><path fill="#e06c4e" d="M 151.839844 177.078125 C 151.921875 177.988281 150.472656 178.382812 150.078125 177.554688 C 146.554688 169.941406 145.703125 157.832031 151.28125 150.675781 C 151.550781 150.96875 151.714844 151.339844 151.820312 151.753906 C 152.441406 151.507812 153.085938 151.382812 153.664062 151.359375 C 151.777344 154.574219 150.410156 157.851562 150.121094 161.8125 C 149.664062 167.058594 151.324219 171.914062 151.839844 177.078125 Z M 151.839844 177.078125 " fill-opacity="1" fill-rule="nonzero"/><path fill="#e06c4e" d="M 143.050781 160.859375 C 142.117188 165.980469 142.742188 170.8125 142.554688 175.957031 C 142.492188 176.992188 141.082031 177.179688 140.730469 176.207031 C 138.199219 168.617188 139.734375 159.160156 143.402344 151.570312 C 143.714844 151.570312 144.046875 151.546875 144.398438 151.464844 C 145.082031 151.277344 145.601562 150.882812 146.097656 150.46875 C 144.792969 153.828125 143.695312 157.3125 143.050781 160.859375 Z M 143.050781 160.859375 " fill-opacity="1" fill-rule="nonzero"/><g clip-path="url(#c780450990)"><path fill="#1d1d7a" d="M 226.300781 350.222656 L 222.691406 350.222656 C 218.339844 344.1875 214.421875 337.78125 209.550781 331.746094 C 200.160156 320.132812 186.996094 312.105469 178.230469 300.015625 C 169.957031 288.585938 164.566406 274.238281 161.644531 260.488281 C 161.375 259.285156 163.011719 258.847656 163.429688 259.988281 C 168.816406 273.84375 172.757812 288.089844 182.144531 299.953125 C 191.308594 311.523438 204.097656 319.53125 213.28125 331.265625 C 217.28125 336.371094 220.640625 341.863281 224.207031 347.296875 C 224.867188 348.273438 225.574219 349.269531 226.300781 350.222656 Z M 226.300781 350.222656 " fill-opacity="1" fill-rule="nonzero"/></g><g clip-path="url(#b0ed0d55d8)"><path fill="#000000" d="M 194.269531 127.554688 C 194.269531 127.753906 194.234375 127.945312 194.15625 128.128906 C 194.082031 128.3125 193.972656 128.472656 193.832031 128.613281 C 193.691406 128.753906 193.527344 128.863281 193.34375 128.941406 C 193.160156 129.015625 192.96875 129.054688 192.769531 129.054688 C 192.570312 129.054688 192.378906 129.015625 192.195312 128.941406 C 192.011719 128.863281 191.851562 128.753906 191.710938 128.613281 C 191.570312 128.472656 191.460938 128.3125 191.386719 128.128906 C 191.308594 127.945312 191.269531 127.753906 191.269531 127.554688 C 191.269531 127.355469 191.308594 127.164062 191.386719 126.980469 C 191.460938 126.796875 191.570312 126.632812 191.710938 126.492188 C 191.851562 126.351562 192.011719 126.242188 192.195312 126.167969 C 192.378906 126.089844 192.570312 126.054688 192.769531 126.054688 C 192.96875 126.054688 193.160156 126.089844 193.34375 126.167969 C 193.527344 126.242188 193.691406 126.351562 193.832031 126.492188 C 193.972656 126.632812 194.082031 126.796875 194.15625 126.980469 C 194.234375 127.164062 194.269531 127.355469 194.269531 127.554688 Z M 194.269531 127.554688 " fill-opacity="1" fill-rule="nonzero"/></g></svg>