<svg xmlns="http://www.w3.org/2000/svg" xmlns:xlink="http://www.w3.org/1999/xlink" width="500" zoomAndPan="magnify" viewBox="0 0 375 374.999991" height="500" preserveAspectRatio="xMidYMid meet" version="1.0"><defs><clipPath id="cff5fdaefe"><path d="M 57.4375 42.324219 L 317.6875 42.324219 L 317.6875 337.824219 L 57.4375 337.824219 Z M 57.4375 42.324219 " clip-rule="nonzero"/></clipPath><clipPath id="11bdbce2fe"><path d="M 150.9375 189.910156 L 242.65625 189.910156 L 242.65625 281.632812 L 150.9375 281.632812 Z M 150.9375 189.910156 " clip-rule="nonzero"/></clipPath><clipPath id="0520de0d43"><path d="M 196.796875 189.910156 C 171.46875 189.910156 150.9375 210.445312 150.9375 235.773438 C 150.9375 261.097656 171.46875 281.632812 196.796875 281.632812 C 222.125 281.632812 242.65625 261.097656 242.65625 235.773438 C 242.65625 210.445312 222.125 189.910156 196.796875 189.910156 Z M 196.796875 189.910156 " clip-rule="nonzero"/></clipPath></defs><path fill="#ffbb7f" d="M 236.878906 114.902344 C 238.066406 118.566406 239.3125 122.492188 241.375 125.664062 C 244.472656 130.429688 248.558594 134.574219 253.289062 137.871094 C 254.554688 138.753906 255.875 139.550781 257.207031 140.339844 C 256.4375 141.882812 255.75 143.464844 255.195312 145.085938 C 253.25 150.773438 252.628906 156.96875 254.113281 162.824219 C 254.558594 164.589844 255.171875 166.269531 255.96875 167.914062 C 256.019531 168.019531 256.027344 168.074219 256.070312 168.164062 C 250.996094 170.90625 245.96875 173.691406 240.910156 176.464844 C 238.515625 177.777344 236.089844 179.105469 233.691406 180.417969 C 233.09375 180.746094 232.488281 181.078125 231.886719 181.40625 C 231.875 181.414062 231.851562 181.449219 231.835938 181.457031 C 230.582031 180.472656 229.722656 178.867188 229.257812 177.503906 C 227.417969 172.089844 227.765625 166.027344 228.332031 160.453125 C 229.046875 153.382812 230.519531 146.390625 232.300781 139.503906 C 233.15625 136.1875 234.210938 132.90625 234.980469 129.570312 C 236.058594 124.921875 236.816406 119.726562 236.878906 114.902344 Z M 222.789062 44.757812 C 216.667969 44.664062 212.097656 46.910156 208.167969 52.484375 C 206.980469 54.171875 206.082031 55.960938 205.414062 57.867188 C 203.828125 62.371094 204.65625 67.351562 205.476562 71.855469 C 204.011719 71.5625 201.078125 71.25 199.613281 71.21875 C 195.195312 71.121094 192.652344 72.207031 189.792969 75.996094 C 189.304688 76.644531 188.832031 77.464844 188.484375 78.199219 C 187.011719 81.328125 186.894531 84.871094 187.035156 88.269531 C 187.21875 92.574219 187.820312 96.882812 187.972656 101.195312 C 188.273438 109.847656 185.117188 118.476562 181.671875 126.433594 C 179.5 131.441406 176.699219 136.183594 173.539062 140.625 C 171.59375 143.359375 169.484375 145.953125 167.464844 148.632812 C 164.019531 153.214844 160.753906 157.910156 157.652344 162.730469 C 144.195312 183.628906 133.746094 208.957031 131.25 233.902344 C 131.203125 234.355469 131.195312 234.808594 131.15625 235.261719 C 124.132812 235.875 116.867188 234.875 107.566406 231.765625 C 99.152344 228.949219 98.867188 228.875 95.792969 228.253906 C 91.34375 227.351562 86.953125 227.253906 83.179688 228.457031 C 81.855469 228.875 80.570312 229.433594 79.300781 230.140625 C 67.65625 236.636719 60.042969 256.21875 59.804688 277.984375 C 59.539062 302.042969 67.554688 318.332031 80.691406 329.78125 C 85.488281 333.964844 90.992188 335.582031 98.308594 335.402344 C 101.28125 335.328125 104.539062 334.949219 108.867188 334.277344 C 111.238281 333.910156 120.226562 332.394531 121.296875 332.214844 C 133.300781 330.242188 142.933594 329.238281 154.148438 329.125 C 194.023438 328.722656 228.8125 316.90625 254.472656 291.472656 C 293.203125 253.085938 314.949219 221.808594 315.078125 196.074219 C 315.097656 192.453125 315.152344 189.503906 315.3125 183.289062 C 315.515625 175.320312 315.570312 171.972656 315.546875 167.644531 C 315.4375 148.597656 312.96875 133.886719 306.109375 117.816406 C 301.863281 107.878906 295.386719 98.917969 285.78125 89.199219 C 281.507812 84.878906 276.59375 80.40625 270.269531 74.917969 C 267.773438 72.753906 257.441406 63.992188 256.902344 63.535156 C 254.992188 61.921875 253.558594 60.71875 252.136719 59.507812 C 243.929688 52.53125 236.214844 47.707031 229.191406 45.738281 C 226.972656 45.117188 224.832031 44.789062 222.792969 44.757812 Z M 222.789062 44.757812 " fill-opacity="1" fill-rule="nonzero"/><path fill="#f2933e" d="M 207.828125 73.476562 C 207.828125 73.476562 206.058594 63.636719 208.636719 56.605469 C 209.808594 53.402344 214.042969 50.515625 215.617188 49.902344 C 216.140625 49.699219 216.371094 49.765625 216.09375 50.140625 C 209.867188 58.445312 213.90625 69.820312 213.90625 69.820312 C 213.90625 69.820312 228.652344 75.433594 235.234375 90.875 C 235.234375 90.875 236.941406 89.675781 239.367188 89.257812 C 239.980469 89.035156 242.128906 90.609375 242.597656 91.777344 C 242.597656 91.777344 244.367188 128.238281 272 138.261719 C 272 138.261719 274.804688 140.914062 272.855469 143.488281 C 269.226562 148.28125 261.363281 155.824219 270.71875 167.679688 C 271.082031 168.144531 271.34375 168.539062 271.523438 169.203125 C 271.667969 169.726562 271.746094 170.824219 271.144531 171.960938 C 267.710938 178.441406 256.558594 192.347656 230.769531 186.121094 L 258.128906 168.347656 C 258.128906 168.347656 251.867188 155.046875 259.078125 139.972656 C 259.078125 139.972656 243.71875 130.132812 240.242188 113.210938 C 240.132812 112.679688 238.3125 112.140625 238.226562 111.597656 C 238.226562 111.597656 232.503906 86.175781 207.828125 73.480469 Z M 289.433594 247.957031 C 285.085938 252.835938 280.902344 257.320312 276.84375 261.503906 C 276.8125 261.539062 276.78125 261.5625 276.75 261.597656 C 276.691406 261.660156 276.617188 261.730469 276.558594 261.789062 C 214.488281 325.710938 185.542969 304.933594 146.835938 309.222656 C 108.308594 313.496094 87.488281 309.707031 81.667969 286.550781 C 77.207031 268.808594 79.988281 232.4375 95.0625 238.167969 C 117.710938 246.78125 126.171875 243.824219 126.171875 243.824219 C 127.164062 246.847656 128.710938 249.648438 130.308594 252.238281 C 133.464844 257.355469 136.863281 261.21875 136.863281 261.21875 C 136.863281 261.21875 136.953125 258.234375 136.957031 256.703125 C 136.992188 245.808594 139.144531 201.511719 173.722656 166.730469 C 211.3125 128.921875 195.316406 87.011719 192.246094 79.894531 C 191.964844 79.238281 191.203125 77.140625 191.203125 77.140625 L 188.632812 76 C 188.496094 76.246094 188.316406 76.472656 188.203125 76.710938 C 187.457031 78.300781 187.074219 79.976562 186.875 81.703125 C 186.875 81.71875 186.875 81.734375 186.875 81.75 C 186.683594 83.460938 186.660156 85.222656 186.730469 86.929688 C 186.917969 91.300781 188.160156 96.015625 188.316406 100.390625 C 188.625 109.175781 186.453125 117.292969 182.949219 125.367188 C 180.742188 130.449219 178.496094 135.890625 175.28125 140.398438 C 173.304688 143.171875 171.15625 145.804688 169.105469 148.527344 C 165.605469 153.175781 162.285156 157.941406 159.132812 162.832031 C 155.710938 168.132812 151.445312 174.550781 148.503906 180.183594 C 148.496094 180.195312 147.882812 181.445312 147.878906 181.457031 C 139.050781 198.347656 133.152344 214.910156 131.25 233.882812 C 131.203125 234.34375 131.195312 234.800781 131.152344 235.261719 C 124.011719 235.886719 116.917969 235.675781 107.460938 232.519531 C 98.910156 229.664062 98.617188 229.585938 95.492188 228.957031 C 90.96875 228.042969 87.027344 228.070312 83.191406 229.289062 C 81.847656 229.714844 80.539062 230.28125 79.246094 231 C 70.371094 235.945312 65.722656 247.597656 62.382812 263.277344 C 62.378906 263.292969 62.386719 263.308594 62.382812 263.324219 C 61.277344 268.535156 60.640625 274.027344 60.578125 279.53125 C 60.378906 297.84375 62.324219 309.308594 70.234375 320.003906 C 70.242188 320.015625 70.226562 320.042969 70.234375 320.054688 C 72.867188 323.605469 75.882812 326.804688 79.214844 329.703125 C 81.652344 331.824219 84.257812 333.296875 87.195312 334.21875 C 87.207031 334.21875 87.226562 334.210938 87.242188 334.21875 C 87.539062 334.308594 87.882812 334.324219 88.191406 334.40625 C 90.875 335.121094 93.800781 335.488281 97.121094 335.40625 C 100.144531 335.332031 103.457031 334.945312 107.855469 334.265625 C 110.265625 333.890625 119.402344 332.351562 120.492188 332.171875 C 132.691406 330.171875 142.628906 330.070312 154.027344 329.957031 C 164.160156 329.851562 173.957031 329.023438 183.382812 327.4375 C 188.09375 326.644531 192.742188 325.667969 197.253906 324.488281 C 206.273438 322.136719 214.207031 319.15625 222.324219 315.21875 C 234.5 309.308594 245.117188 301.574219 254.898438 291.894531 C 268.90625 278.035156 280.574219 265.695312 290 253.589844 L 289.433594 247.960938 Z M 289.433594 247.957031 " fill-opacity="1" fill-rule="nonzero"/><g clip-path="url(#cff5fdaefe)"><path fill="#9a4a04" d="M 237.039062 116.539062 C 238.132812 120.0625 239.558594 123.46875 241.457031 126.519531 C 244.308594 131.101562 248.070312 135.085938 252.429688 138.261719 C 253.320312 138.90625 254.253906 139.480469 255.183594 140.066406 C 255.472656 140.25 255.75 140.457031 256.039062 140.636719 C 255.332031 142.117188 254.699219 143.640625 254.1875 145.199219 C 252.394531 150.667969 251.824219 156.628906 253.1875 162.261719 C 253.601562 163.960938 254.164062 165.574219 254.898438 167.15625 C 254.945312 167.257812 254.953125 167.308594 254.992188 167.394531 C 250.320312 170.035156 245.6875 172.714844 241.027344 175.378906 C 238.820312 176.644531 236.585938 177.917969 234.378906 179.183594 C 233.828125 179.5 233.269531 179.816406 232.714844 180.132812 C 232.703125 180.140625 232.683594 180.171875 232.667969 180.179688 C 231.515625 179.234375 230.722656 177.691406 230.292969 176.378906 C 228.601562 171.171875 228.917969 165.34375 229.4375 159.980469 C 230.101562 153.179688 231.457031 146.453125 233.097656 139.828125 C 233.886719 136.636719 234.855469 133.484375 235.566406 130.273438 C 236.558594 125.804688 236.980469 121.175781 237.039062 116.539062 Z M 222.980469 48.667969 C 229.898438 48.554688 238.800781 53.300781 249.246094 62.167969 C 250.699219 63.398438 265.164062 75.625 267.675781 77.804688 C 274.003906 83.28125 278.847656 87.707031 283.066406 91.96875 C 292.335938 101.324219 298.515625 109.804688 302.492188 119.105469 C 309.113281 134.582031 311.457031 148.765625 311.566406 167.347656 C 311.589844 171.652344 311.535156 174.960938 311.328125 182.984375 C 311.164062 189.332031 311.109375 192.375 311.09375 196.101562 C 310.972656 219.980469 289.496094 250.835938 251.289062 288.640625 C 226.453125 313.222656 192.605469 324.703125 153.535156 325.097656 C 141.78125 325.214844 131.671875 326.277344 119.191406 328.328125 C 118.0625 328.515625 109.003906 330.054688 106.652344 330.417969 C 102.488281 331.0625 99.390625 331.398438 96.679688 331.464844 C 90.652344 331.613281 86.527344 330.386719 82.902344 327.234375 C 70.84375 316.742188 63.511719 301.878906 63.761719 279.328125 C 63.980469 259.21875 72.59375 239.78125 82.238281 234.410156 C 83.175781 233.890625 84.136719 233.476562 85.089844 233.175781 C 90.042969 231.601562 93.164062 232.203125 105.609375 236.359375 C 115.433594 239.640625 122.277344 240.941406 130.023438 240.398438 C 129.894531 244.40625 129.921875 248.429688 130.308594 252.425781 C 130.605469 255.480469 131.019531 258.589844 131.875 261.550781 C 132.34375 263.144531 133.984375 264.0625 135.582031 263.59375 C 137.175781 263.128906 138.089844 261.484375 137.625 259.886719 C 136.5625 256.414062 136.269531 252.554688 136.054688 248.957031 C 135.652344 242.183594 136.042969 235.371094 137.007812 228.660156 C 140.484375 204.472656 151.167969 181.746094 164.746094 161.644531 C 167.046875 158.238281 169.445312 154.898438 171.917969 151.617188 C 174.5 148.191406 177.207031 144.855469 179.613281 141.300781 C 182.855469 136.511719 185.679688 131.46875 187.832031 126.09375 C 191.179688 117.710938 192.609375 108.816406 192.296875 99.808594 C 192.242188 98.234375 192.132812 96.484375 192.011719 94.914062 C 191.902344 93.527344 191.75 91.929688 191.628906 90.539062 C 191.210938 85.640625 190.042969 77.933594 196.097656 75.949219 C 196.871094 75.695312 197.703125 75.535156 198.519531 75.472656 C 199.871094 75.371094 201.269531 75.472656 202.601562 75.710938 C 204.726562 76.085938 206.753906 76.757812 208.730469 77.613281 C 213.28125 79.578125 217.222656 82.511719 220.605469 86.121094 C 223.121094 88.800781 225.167969 91.949219 226.78125 95.246094 C 231.101562 104.082031 232.003906 114.207031 230.628906 123.859375 C 229.925781 128.800781 228.453125 133.519531 227.257812 138.355469 C 225.703125 144.636719 224.402344 151.03125 223.648438 157.460938 C 222.878906 163.988281 222.5 170.929688 224.3125 177.328125 C 224.769531 178.945312 225.390625 180.546875 226.257812 181.984375 C 227.871094 184.660156 230.691406 187.4375 234.050781 186.3125 C 234.65625 186.105469 235.15625 185.679688 235.710938 185.359375 C 237.367188 184.414062 239.042969 183.457031 240.699219 182.507812 C 244.011719 180.613281 247.316406 178.746094 250.625 176.851562 C 251.730469 176.222656 252.847656 175.582031 253.953125 174.953125 C 255.054688 174.320312 256.125 173.683594 257.230469 173.050781 C 257.8125 172.714844 258.484375 172.339844 259.128906 171.957031 C 259.351562 172.039062 259.570312 172.125 259.792969 172.195312 C 260.621094 172.453125 262.570312 172.945312 264.921875 173.144531 C 267.273438 173.347656 269.078125 173.015625 269.199219 173.003906 C 270.847656 172.792969 272.023438 171.277344 271.8125 169.628906 C 271.597656 167.976562 270.085938 166.851562 268.4375 167.0625 C 267.878906 166.984375 266.585938 167.109375 266.585938 167.109375 C 266.585938 167.109375 265.390625 167.160156 265.351562 167.15625 C 264.054688 167.058594 262.789062 166.828125 261.550781 166.445312 C 261.441406 166.410156 261.328125 166.386719 261.21875 166.347656 C 261.042969 166.023438 260.871094 165.644531 260.742188 165.398438 C 260.359375 164.652344 260.035156 163.902344 259.746094 163.117188 C 258.773438 160.492188 258.367188 157.6875 258.464844 154.894531 C 258.570312 151.855469 259.222656 148.855469 260.269531 146.007812 C 260.511719 145.34375 260.789062 144.765625 261.027344 144.105469 C 261.148438 143.773438 261.476562 143.164062 261.742188 142.632812 C 264.753906 143.507812 267.863281 144.09375 271.003906 144.105469 C 272.664062 144.101562 274.046875 142.726562 274.042969 141.0625 C 274.042969 139.398438 272.664062 138.066406 271.003906 138.070312 C 268.988281 137.914062 267.3125 137.863281 266.207031 137.6875 C 264.21875 137.375 262.261719 136.65625 260.410156 135.882812 C 259.871094 135.65625 259.320312 135.425781 258.796875 135.167969 C 258.632812 135.089844 258.480469 135.015625 258.320312 134.929688 C 258.257812 134.898438 258.183594 134.800781 258.179688 134.789062 C 258.171875 134.785156 258.082031 134.789062 258.082031 134.789062 C 258.003906 134.75 257.667969 134.558594 257.65625 134.550781 C 254.542969 132.511719 251.726562 130.046875 249.34375 127.183594 C 244.871094 121.8125 241.890625 114.789062 241.269531 107.792969 C 240.828125 102.84375 241.597656 97.601562 242.695312 92.773438 C 243.0625 91.148438 242.082031 89.527344 240.460938 89.160156 C 238.839844 88.792969 237.21875 89.820312 236.851562 91.441406 C 236.09375 94.789062 235.621094 98.253906 235.378906 101.753906 C 233.550781 94.476562 230.28125 87.632812 224.976562 81.984375 C 221.429688 78.203125 217.351562 75.066406 212.675781 72.808594 C 212.113281 72.539062 211.421875 72.351562 210.820312 72.097656 C 210.679688 71.660156 210.523438 71.203125 210.394531 70.671875 C 209.394531 66.5625 209.332031 62.269531 210.726562 58.3125 C 211.222656 56.898438 211.886719 55.519531 212.769531 54.273438 C 215.386719 50.5625 218.832031 48.734375 222.980469 48.664062 Z M 223.359375 42.585938 C 217.136719 42.488281 211.773438 45.152344 207.78125 50.804688 C 206.570312 52.519531 205.660156 54.335938 204.976562 56.273438 C 203.367188 60.84375 203.429688 65.582031 204.265625 70.152344 C 202.777344 69.851562 201.289062 69.46875 199.800781 69.4375 C 195.304688 69.339844 191.019531 70.628906 188.113281 74.476562 C 187.617188 75.132812 187.136719 75.964844 186.785156 76.710938 C 185.285156 79.886719 185.164062 83.484375 185.3125 86.929688 C 185.496094 91.300781 186.105469 95.671875 186.261719 100.046875 C 186.570312 108.828125 185.0625 117.398438 181.558594 125.472656 C 179.355469 130.554688 176.507812 135.367188 173.292969 139.875 C 171.316406 142.652344 169.167969 145.28125 167.121094 148.003906 C 163.617188 152.652344 160.300781 157.417969 157.144531 162.308594 C 143.464844 183.519531 132.988281 207.574219 130.449219 232.890625 C 130.402344 233.347656 130.394531 233.808594 130.355469 234.269531 C 123.214844 234.890625 116.960938 233.765625 107.507812 230.609375 C 98.953125 227.75 98.660156 227.675781 95.535156 227.042969 C 91.015625 226.128906 87.070312 226.15625 83.234375 227.375 C 81.890625 227.800781 80.582031 228.367188 79.292969 229.085938 C 67.457031 235.679688 57.921875 257.191406 57.679688 279.277344 C 57.414062 303.695312 65.558594 320.226562 78.914062 331.847656 C 83.789062 336.089844 89.382812 337.734375 96.820312 337.550781 C 99.84375 337.476562 103.15625 337.089844 107.554688 336.410156 C 109.964844 336.035156 119.101562 334.496094 120.191406 334.316406 C 132.390625 332.3125 142.183594 331.296875 153.582031 331.179688 C 194.117188 330.769531 229.480469 318.777344 255.566406 292.964844 C 294.933594 254.007812 317.039062 222.265625 317.171875 196.148438 C 317.191406 192.476562 317.25 189.480469 317.410156 183.175781 C 317.617188 175.085938 317.675781 171.691406 317.648438 167.300781 C 317.535156 147.964844 315.027344 133.035156 308.054688 116.730469 C 303.738281 106.644531 297.15625 97.546875 287.390625 87.6875 C 283.042969 83.300781 278.054688 78.761719 271.621094 73.191406 C 269.085938 70.996094 258.582031 62.105469 258.035156 61.640625 C 256.09375 60.003906 254.636719 58.785156 253.191406 57.554688 C 244.847656 50.472656 237.007812 45.578125 229.867188 43.582031 C 227.613281 42.949219 225.433594 42.613281 223.359375 42.582031 Z M 223.359375 42.585938 " fill-opacity="1" fill-rule="nonzero"/></g><g clip-path="url(#11bdbce2fe)"><g clip-path="url(#0520de0d43)"><path fill="#ffbb7f" d="M 150.9375 189.910156 L 242.65625 189.910156 L 242.65625 281.632812 L 150.9375 281.632812 Z M 150.9375 189.910156 " fill-opacity="1" fill-rule="nonzero"/></g></g></svg>