<svg xmlns="http://www.w3.org/2000/svg" xmlns:xlink="http://www.w3.org/1999/xlink" width="500" zoomAndPan="magnify" viewBox="0 0 375 374.999991" height="500" preserveAspectRatio="xMidYMid meet" version="1.0"><defs><clipPath id="941022c9ae"><path d="M 167.109375 263.386719 L 207.609375 263.386719 L 207.609375 303.886719 L 167.109375 303.886719 Z M 167.109375 263.386719 " clip-rule="nonzero"/></clipPath><clipPath id="c5551cd002"><path d="M 164 47.960938 L 203 47.960938 L 203 163 L 164 163 Z M 164 47.960938 " clip-rule="nonzero"/></clipPath><clipPath id="0e78243a5e"><path d="M 171 47.960938 L 203 47.960938 L 203 163 L 171 163 Z M 171 47.960938 " clip-rule="nonzero"/></clipPath></defs><g clip-path="url(#941022c9ae)"><path fill="#000000" d="M 207.613281 283.640625 C 207.613281 284.304688 207.582031 284.964844 207.515625 285.625 C 207.449219 286.285156 207.355469 286.941406 207.222656 287.589844 C 207.09375 288.242188 206.933594 288.886719 206.742188 289.519531 C 206.546875 290.152344 206.324219 290.777344 206.070312 291.390625 C 205.816406 292.003906 205.535156 292.601562 205.222656 293.1875 C 204.910156 293.773438 204.570312 294.339844 204.199219 294.890625 C 203.832031 295.445312 203.4375 295.976562 203.015625 296.488281 C 202.59375 297 202.152344 297.492188 201.679688 297.960938 C 201.210938 298.429688 200.722656 298.875 200.207031 299.296875 C 199.695312 299.714844 199.164062 300.113281 198.613281 300.480469 C 198.0625 300.847656 197.492188 301.1875 196.90625 301.5 C 196.324219 301.8125 195.722656 302.097656 195.109375 302.351562 C 194.5 302.605469 193.875 302.828125 193.238281 303.019531 C 192.605469 303.214844 191.960938 303.375 191.3125 303.503906 C 190.660156 303.632812 190.007812 303.730469 189.347656 303.796875 C 188.6875 303.859375 188.023438 303.894531 187.359375 303.894531 C 186.699219 303.894531 186.035156 303.859375 185.375 303.796875 C 184.714844 303.730469 184.058594 303.632812 183.410156 303.503906 C 182.757812 303.375 182.117188 303.214844 181.480469 303.019531 C 180.847656 302.828125 180.222656 302.605469 179.609375 302.351562 C 178.996094 302.097656 178.398438 301.8125 177.8125 301.5 C 177.230469 301.1875 176.660156 300.847656 176.109375 300.480469 C 175.558594 300.113281 175.027344 299.714844 174.511719 299.296875 C 174 298.875 173.507812 298.429688 173.039062 297.960938 C 172.570312 297.492188 172.125 297 171.707031 296.488281 C 171.285156 295.976562 170.890625 295.445312 170.523438 294.890625 C 170.152344 294.339844 169.8125 293.773438 169.5 293.1875 C 169.1875 292.601562 168.902344 292.003906 168.648438 291.390625 C 168.394531 290.777344 168.171875 290.152344 167.980469 289.519531 C 167.789062 288.886719 167.625 288.242188 167.496094 287.589844 C 167.367188 286.941406 167.269531 286.285156 167.207031 285.625 C 167.140625 284.964844 167.109375 284.304688 167.109375 283.640625 C 167.109375 282.976562 167.140625 282.316406 167.207031 281.65625 C 167.269531 280.996094 167.367188 280.339844 167.496094 279.691406 C 167.625 279.039062 167.789062 278.394531 167.980469 277.761719 C 168.171875 277.125 168.394531 276.503906 168.648438 275.890625 C 168.902344 275.277344 169.1875 274.679688 169.5 274.09375 C 169.8125 273.507812 170.152344 272.941406 170.523438 272.390625 C 170.890625 271.835938 171.285156 271.304688 171.707031 270.792969 C 172.125 270.28125 172.570312 269.789062 173.039062 269.320312 C 173.507812 268.851562 174 268.40625 174.511719 267.984375 C 175.027344 267.5625 175.558594 267.167969 176.109375 266.800781 C 176.660156 266.433594 177.230469 266.09375 177.8125 265.78125 C 178.398438 265.464844 178.996094 265.183594 179.609375 264.929688 C 180.222656 264.675781 180.847656 264.453125 181.480469 264.261719 C 182.117188 264.066406 182.757812 263.90625 183.410156 263.777344 C 184.058594 263.648438 184.714844 263.550781 185.375 263.484375 C 186.035156 263.421875 186.699219 263.386719 187.359375 263.386719 C 188.023438 263.386719 188.6875 263.421875 189.347656 263.484375 C 190.007812 263.550781 190.660156 263.648438 191.3125 263.777344 C 191.960938 263.90625 192.605469 264.066406 193.238281 264.261719 C 193.875 264.453125 194.5 264.675781 195.109375 264.929688 C 195.722656 265.183594 196.324219 265.464844 196.90625 265.78125 C 197.492188 266.09375 198.0625 266.433594 198.613281 266.800781 C 199.164062 267.167969 199.695312 267.5625 200.207031 267.984375 C 200.722656 268.40625 201.210938 268.851562 201.679688 269.320312 C 202.152344 269.789062 202.59375 270.28125 203.015625 270.792969 C 203.4375 271.304688 203.832031 271.835938 204.199219 272.390625 C 204.570312 272.941406 204.910156 273.507812 205.222656 274.09375 C 205.535156 274.679688 205.816406 275.277344 206.070312 275.890625 C 206.324219 276.503906 206.546875 277.125 206.742188 277.761719 C 206.933594 278.394531 207.09375 279.039062 207.222656 279.691406 C 207.355469 280.339844 207.449219 280.996094 207.515625 281.65625 C 207.582031 282.316406 207.613281 282.976562 207.613281 283.640625 Z M 207.613281 283.640625 " fill-opacity="1" fill-rule="nonzero"/></g><path fill="#4c5c75" d="M 239.847656 303.316406 C 239.664062 304.199219 235.371094 325.632812 235.648438 324.277344 C 235.648438 337.253906 141.988281 337.253906 141.988281 324.277344 C 141.8125 323.386719 137.539062 301.949219 137.808594 303.316406 Z M 239.847656 303.316406 " fill-opacity="1" fill-rule="nonzero"/><path fill="#c9cee2" d="M 187.394531 321.300781 C 110.730469 321.300781 57.269531 263.207031 65.863281 203.980469 C 67.457031 201.917969 71.234375 199.964844 76.832031 198.179688 C 96.507812 191.886719 138.609375 187.503906 187.394531 187.503906 C 245.667969 187.503906 294.445312 193.746094 306.769531 202.070312 C 307.703125 202.6875 308.410156 203.324219 308.925781 203.980469 C 317.644531 264.117188 262.910156 321.300781 187.394531 321.300781 Z M 187.394531 321.300781 " fill-opacity="1" fill-rule="nonzero"/><path fill="#e3e7f0" d="M 212.59375 219.511719 C 212.59375 219.511719 208.804688 280.101562 86.761719 276.109375 C 68.699219 253.824219 62.445312 227.550781 65.863281 203.980469 C 67.457031 201.917969 71.234375 199.964844 76.832031 198.179688 Z M 212.59375 219.511719 " fill-opacity="1" fill-rule="nonzero"/><path fill="#f1f6fa" d="M 309.355469 207.769531 C 304.210938 217.367188 251.554688 224.921875 187.382812 224.921875 C 123.207031 224.921875 70.566406 217.367188 65.421875 207.769531 C 64.714844 206.445312 64.941406 205.179688 65.863281 203.992188 C 73.03125 194.742188 124.703125 187.515625 187.382812 187.515625 C 250.054688 187.515625 301.746094 194.742188 308.914062 203.992188 C 309.839844 205.179688 310.066406 206.445312 309.355469 207.769531 Z M 309.355469 207.769531 " fill-opacity="1" fill-rule="nonzero"/><path fill="#b0b8cf" d="M 306.039062 206.207031 C 304.839844 207.972656 300.433594 209.945312 293.152344 211.863281 C 245.1875 224.554688 128.328125 224.214844 81.574219 211.886719 C 74.285156 209.945312 69.921875 207.972656 68.75 206.207031 C 73.382812 200.265625 105.890625 193.929688 153.960938 191.867188 C 164.414062 191.414062 175.605469 191.15625 187.394531 191.15625 C 253.441406 191.15625 300.382812 198.96875 306.039062 206.207031 Z M 306.039062 206.207031 " fill-opacity="1" fill-rule="nonzero"/><path fill="#c9cee2" d="M 161.988281 220.859375 C 124.449219 219.65625 96.734375 215.878906 81.574219 211.886719 C 74.285156 209.945312 69.921875 207.972656 68.75 206.207031 C 73.382812 200.265625 105.890625 193.929688 153.960938 191.867188 Z M 161.988281 220.859375 " fill-opacity="1" fill-rule="nonzero"/><path fill="#ffd475" d="M 293.152344 211.863281 C 243.675781 224.953125 126.964844 223.9375 81.574219 211.886719 C 139.511719 196.394531 233.820312 196.015625 293.152344 211.863281 Z M 293.152344 211.863281 " fill-opacity="1" fill-rule="nonzero"/><path fill="#ffde9b" d="M 271.414062 216.09375 C 224.136719 223.015625 150.203125 222.984375 103.285156 216.085938 C 109.988281 203.148438 132.386719 218.269531 141.566406 212.316406 C 148.105469 208.085938 162.769531 201.703125 179.746094 207.285156 C 189.601562 210.519531 208.640625 214.84375 218.671875 211.917969 C 237.085938 206.617188 254.859375 206.023438 271.414062 216.09375 Z M 271.414062 216.09375 " fill-opacity="1" fill-rule="nonzero"/><path fill="#678aee" d="M 312.171875 156.796875 C 312.171875 160.78125 310.238281 164.683594 306.625 167.03125 C 305.730469 167.617188 239.25 210.898438 243.460938 208.160156 C 236.488281 208.023438 229.546875 209.03125 222.800781 210.785156 C 248.597656 187.226562 265.835938 171.476562 291.746094 147.824219 C 299.640625 140.648438 312.171875 146.347656 312.171875 156.796875 Z M 312.171875 156.796875 " fill-opacity="1" fill-rule="nonzero"/><path fill="#ffffff" d="M 80.445312 239.726562 C 76.769531 224.71875 71.171875 228.433594 73.25 237.292969 C 74.632812 243.207031 78.308594 247.734375 79.902344 247.375 C 81.546875 247.046875 81.320312 243.609375 80.445312 239.726562 Z M 80.445312 239.726562 " fill-opacity="1" fill-rule="nonzero"/><path fill="#ffffff" d="M 89.503906 267.671875 C 96.652344 275 102.738281 274.917969 101.878906 271.601562 C 101.105469 268.308594 96.527344 264.058594 92.378906 259.644531 C 88.128906 255.382812 84.070312 251.101562 82.027344 251.605469 C 79.964844 251.945312 82.335938 260.269531 89.503906 267.671875 Z M 89.503906 267.671875 " fill-opacity="1" fill-rule="nonzero"/><path fill="#e3e7f0" d="M 145.640625 167.648438 C 142.4375 177.945312 134.273438 185.019531 125.167969 191.085938 C 127.21875 188.949219 128.605469 185.707031 130.15625 183.191406 C 132.746094 178.878906 136.65625 173.273438 138.035156 166.160156 C 140.878906 151.960938 128.257812 145.75 120.371094 137.160156 C 114.671875 130.742188 113.417969 120.929688 117.28125 113.320312 C 118.277344 111.238281 118.984375 110.332031 131.523438 93.363281 C 131.039062 94.636719 130.925781 95.703125 130.566406 97.109375 C 129.902344 99.902344 129.046875 102.910156 127.898438 105.917969 C 125.8125 111.339844 123.039062 117.34375 123.976562 123.300781 C 125.515625 133.410156 139.007812 136.832031 144.945312 150.90625 C 147.253906 156.355469 147.304688 162.035156 145.640625 167.648438 Z M 145.640625 167.648438 " fill-opacity="1" fill-rule="nonzero"/><path fill="#c9cee2" d="M 145.640625 167.648438 C 142.46875 177.84375 134.644531 184.558594 126.195312 190.359375 C 136.75 182.472656 141.503906 168.347656 141.503906 157.199219 C 141.503906 145.691406 126.769531 141.121094 121.4375 128.246094 C 118.449219 121 121.601562 108.28125 131.523438 93.363281 C 131.039062 94.636719 130.925781 95.703125 130.566406 97.109375 C 129.902344 99.902344 129.046875 102.910156 127.898438 105.917969 C 125.8125 111.339844 123.039062 117.34375 123.976562 123.300781 C 125.515625 133.410156 139.007812 136.832031 144.945312 150.90625 C 147.253906 156.355469 147.304688 162.035156 145.640625 167.648438 Z M 145.640625 167.648438 " fill-opacity="1" fill-rule="nonzero"/><path fill="#e3e7f0" d="M 253.332031 160.175781 C 250.125 170.472656 241.972656 177.546875 232.855469 183.621094 C 234.910156 181.488281 236.292969 178.234375 237.84375 175.71875 C 240.433594 171.40625 244.34375 165.800781 245.722656 158.695312 C 248.574219 144.46875 235.996094 138.339844 228.058594 129.695312 C 222.359375 123.277344 221.105469 113.453125 224.96875 105.859375 C 226.445312 102.757812 234.804688 92.027344 239.085938 86.074219 C 239.167969 85.960938 239.210938 85.898438 239.210938 85.898438 C 238.738281 87.164062 238.613281 88.230469 238.253906 89.636719 C 237.589844 92.429688 236.734375 95.4375 235.585938 98.445312 C 233.5 103.875 230.730469 109.871094 231.664062 115.835938 C 232.917969 124.019531 242.210938 128.136719 248.515625 136.347656 C 254.449219 144.171875 255.765625 151.972656 253.332031 160.175781 Z M 253.332031 160.175781 " fill-opacity="1" fill-rule="nonzero"/><path fill="#c9cee2" d="M 253.332031 160.175781 C 250.15625 170.378906 242.34375 177.082031 233.882812 182.882812 C 244.4375 175.007812 249.191406 160.875 249.191406 149.722656 C 249.191406 138.226562 234.457031 133.648438 229.125 120.785156 C 226.140625 113.535156 229.292969 100.804688 239.210938 85.898438 C 238.738281 87.164062 238.613281 88.230469 238.253906 89.636719 C 237.589844 92.429688 236.734375 95.4375 235.585938 98.445312 C 233.5 103.875 230.730469 109.871094 231.664062 115.835938 C 232.917969 124.019531 242.210938 128.136719 248.515625 136.347656 C 254.449219 144.171875 255.765625 151.972656 253.332031 160.175781 Z M 253.332031 160.175781 " fill-opacity="1" fill-rule="nonzero"/><g clip-path="url(#c5551cd002)"><path fill="#e3e7f0" d="M 200.910156 135.3125 C 197.148438 147.414062 187.558594 155.71875 176.839844 162.863281 C 179.261719 160.351562 180.894531 156.539062 182.703125 153.585938 C 185.753906 148.511719 190.351562 141.921875 191.976562 133.566406 C 195.324219 116.84375 180.535156 109.636719 171.210938 99.472656 C 164.507812 91.9375 163.039062 80.386719 167.578125 71.457031 C 169.3125 67.8125 179.117188 55.234375 184.171875 48.203125 C 184.261719 48.070312 184.3125 47.996094 184.3125 47.996094 C 183.75 49.488281 183.617188 50.738281 183.195312 52.390625 C 182.40625 55.675781 181.410156 59.21875 180.054688 62.75 C 177.609375 69.125 174.355469 76.179688 175.441406 83.179688 C 176.910156 92.800781 187.835938 97.644531 195.25 107.292969 C 202.222656 116.492188 203.761719 125.660156 200.910156 135.3125 Z M 200.910156 135.3125 " fill-opacity="1" fill-rule="nonzero"/></g><g clip-path="url(#0e78243a5e)"><path fill="#c9cee2" d="M 200.910156 135.3125 C 197.179688 147.300781 187.992188 155.1875 178.050781 162.003906 C 190.453125 152.742188 196.042969 136.132812 196.042969 123.023438 C 196.042969 109.5 178.726562 104.132812 172.464844 89 C 167.617188 77.257812 177.257812 58.59375 184.3125 47.996094 C 183.75 49.488281 183.617188 50.738281 183.195312 52.390625 C 182.40625 55.675781 181.410156 59.21875 180.054688 62.75 C 177.609375 69.125 174.355469 76.179688 175.441406 83.179688 C 176.910156 92.800781 187.835938 97.644531 195.25 107.292969 C 202.222656 116.492188 203.761719 125.660156 200.910156 135.3125 Z M 200.910156 135.3125 " fill-opacity="1" fill-rule="nonzero"/></g></svg>